<mxfile host="Electron" modified="2023-11-14T12:51:05.973Z" agent="Mozilla/5.0 (Macintosh; Intel Mac OS X 10_15_7) AppleWebKit/537.36 (KHTML, like Gecko) draw.io/22.0.3 Chrome/114.0.5735.289 Electron/25.8.4 Safari/537.36" etag="Yz1NGzmFF6K_SA1uFSpZ" version="22.0.3" type="device">
  <diagram name="Page-1" id="6kISg8Sdxvk-Tm7Y7ehi">
    <mxGraphModel dx="1363" dy="866" grid="1" gridSize="10" guides="1" tooltips="1" connect="1" arrows="1" fold="1" page="1" pageScale="1" pageWidth="827" pageHeight="1169" math="0" shadow="0">
      <root>
        <mxCell id="0" />
        <mxCell id="1" parent="0" />
        <mxCell id="wVSth_chMfJrxCskNqP--33" value="" style="shape=ext;double=1;rounded=0;whiteSpace=wrap;html=1;fillColor=#dae8fc;gradientColor=#7ea6e0;strokeColor=#6c8ebf;" vertex="1" parent="1">
          <mxGeometry x="50" y="170" width="760" height="170" as="geometry" />
        </mxCell>
        <mxCell id="wVSth_chMfJrxCskNqP--31" value="" style="shape=ext;double=1;rounded=0;whiteSpace=wrap;html=1;fillColor=#fff2cc;strokeColor=#d6b656;" vertex="1" parent="1">
          <mxGeometry x="50" y="545" width="760" height="80" as="geometry" />
        </mxCell>
        <mxCell id="wVSth_chMfJrxCskNqP--29" value="" style="shape=ext;double=1;rounded=0;whiteSpace=wrap;html=1;fillColor=#dae8fc;strokeColor=#6c8ebf;" vertex="1" parent="1">
          <mxGeometry x="50" y="340" width="760" height="210" as="geometry" />
        </mxCell>
        <mxCell id="wVSth_chMfJrxCskNqP--1" value="" style="triangle;whiteSpace=wrap;html=1;" vertex="1" parent="1">
          <mxGeometry x="80" y="432.58000000000004" width="40" height="50" as="geometry" />
        </mxCell>
        <mxCell id="wVSth_chMfJrxCskNqP--2" value="" style="ellipse;whiteSpace=wrap;html=1;aspect=fixed;" vertex="1" parent="1">
          <mxGeometry x="120" y="427.58000000000004" width="60" height="60" as="geometry" />
        </mxCell>
        <mxCell id="wVSth_chMfJrxCskNqP--3" value="" style="triangle;whiteSpace=wrap;html=1;rotation=-90;" vertex="1" parent="1">
          <mxGeometry x="140" y="400" width="20" height="40" as="geometry" />
        </mxCell>
        <mxCell id="wVSth_chMfJrxCskNqP--4" value="" style="shape=waypoint;sketch=0;fillStyle=solid;size=6;pointerEvents=1;points=[];fillColor=none;resizable=0;rotatable=0;perimeter=centerPerimeter;snapToPoint=1;" vertex="1" parent="1">
          <mxGeometry x="150" y="437.58000000000004" width="20" height="20" as="geometry" />
        </mxCell>
        <mxCell id="wVSth_chMfJrxCskNqP--30" style="edgeStyle=orthogonalEdgeStyle;rounded=0;orthogonalLoop=1;jettySize=auto;html=1;" edge="1" parent="1" source="wVSth_chMfJrxCskNqP--5" target="wVSth_chMfJrxCskNqP--29">
          <mxGeometry relative="1" as="geometry" />
        </mxCell>
        <mxCell id="wVSth_chMfJrxCskNqP--5" value="" style="line;strokeWidth=4;html=1;perimeter=backbonePerimeter;points=[];outlineConnect=0;" vertex="1" parent="1">
          <mxGeometry x="50" y="540" width="760" height="10" as="geometry" />
        </mxCell>
        <mxCell id="wVSth_chMfJrxCskNqP--6" value="" style="ellipse;shape=cloud;whiteSpace=wrap;html=1;rotation=90;" vertex="1" parent="1">
          <mxGeometry x="360" y="520" width="120" height="10" as="geometry" />
        </mxCell>
        <mxCell id="wVSth_chMfJrxCskNqP--7" value="" style="ellipse;shape=cloud;whiteSpace=wrap;html=1;rotation=90;" vertex="1" parent="1">
          <mxGeometry x="385" y="490" width="120" height="10" as="geometry" />
        </mxCell>
        <mxCell id="wVSth_chMfJrxCskNqP--8" value="" style="shape=flexArrow;endArrow=classic;startArrow=classic;html=1;rounded=0;" edge="1" parent="1">
          <mxGeometry width="100" height="100" relative="1" as="geometry">
            <mxPoint x="634.62" y="520" as="sourcePoint" />
            <mxPoint x="634.62" y="440" as="targetPoint" />
            <Array as="points" />
          </mxGeometry>
        </mxCell>
        <mxCell id="wVSth_chMfJrxCskNqP--9" value="" style="ellipse;whiteSpace=wrap;html=1;" vertex="1" parent="1">
          <mxGeometry x="590" y="370" width="90" height="40" as="geometry" />
        </mxCell>
        <mxCell id="wVSth_chMfJrxCskNqP--11" value="" style="triangle;whiteSpace=wrap;html=1;rotation=-165;" vertex="1" parent="1">
          <mxGeometry x="681.63" y="357.58000000000004" width="40" height="70" as="geometry" />
        </mxCell>
        <mxCell id="wVSth_chMfJrxCskNqP--12" value="" style="triangle;whiteSpace=wrap;html=1;rotation=-93;" vertex="1" parent="1">
          <mxGeometry x="625" y="400" width="20" height="40" as="geometry" />
        </mxCell>
        <mxCell id="wVSth_chMfJrxCskNqP--13" value="" style="triangle;whiteSpace=wrap;html=1;rotation=-91;" vertex="1" parent="1">
          <mxGeometry x="605" y="327.58" width="60" height="30" as="geometry" />
        </mxCell>
        <mxCell id="wVSth_chMfJrxCskNqP--15" value="" style="shape=waypoint;sketch=0;fillStyle=solid;size=6;pointerEvents=1;points=[];fillColor=none;resizable=0;rotatable=0;perimeter=centerPerimeter;snapToPoint=1;" vertex="1" parent="1">
          <mxGeometry x="600" y="370" width="20" height="20" as="geometry" />
        </mxCell>
        <mxCell id="wVSth_chMfJrxCskNqP--16" value="" style="shape=offPageConnector;whiteSpace=wrap;html=1;" vertex="1" parent="1">
          <mxGeometry x="180" y="280" width="190" height="60" as="geometry" />
        </mxCell>
        <mxCell id="wVSth_chMfJrxCskNqP--18" value="" style="shape=actor;whiteSpace=wrap;html=1;" vertex="1" parent="1">
          <mxGeometry x="255" y="220.00000000000006" width="40" height="60" as="geometry" />
        </mxCell>
        <mxCell id="wVSth_chMfJrxCskNqP--19" value="" style="line;strokeWidth=2;direction=south;html=1;" vertex="1" parent="1">
          <mxGeometry x="220" y="200" width="10" height="80" as="geometry" />
        </mxCell>
        <mxCell id="wVSth_chMfJrxCskNqP--20" value="" style="edgeStyle=isometricEdgeStyle;endArrow=none;html=1;elbow=vertical;rounded=0;" edge="1" parent="1">
          <mxGeometry width="50" height="100" relative="1" as="geometry">
            <mxPoint x="310.8" y="280.00000000000006" as="sourcePoint" />
            <mxPoint x="430" y="272.42" as="targetPoint" />
            <Array as="points">
              <mxPoint x="390" y="242.42000000000002" />
            </Array>
          </mxGeometry>
        </mxCell>
        <mxCell id="wVSth_chMfJrxCskNqP--21" value="" style="shape=tape;whiteSpace=wrap;html=1;" vertex="1" parent="1">
          <mxGeometry x="130" y="170" width="100" height="80" as="geometry" />
        </mxCell>
        <mxCell id="wVSth_chMfJrxCskNqP--22" value="" style="endArrow=none;dashed=1;html=1;dashPattern=1 3;strokeWidth=2;rounded=0;" edge="1" parent="1">
          <mxGeometry width="50" height="50" relative="1" as="geometry">
            <mxPoint x="430" y="362.42" as="sourcePoint" />
            <mxPoint x="430" y="272.42" as="targetPoint" />
          </mxGeometry>
        </mxCell>
        <mxCell id="wVSth_chMfJrxCskNqP--24" value="" style="curved=1;endArrow=classic;html=1;rounded=0;" edge="1" parent="1">
          <mxGeometry width="50" height="50" relative="1" as="geometry">
            <mxPoint x="410" y="350" as="sourcePoint" />
            <mxPoint x="430" y="300" as="targetPoint" />
            <Array as="points">
              <mxPoint x="400" y="400" />
              <mxPoint x="460" y="377.58" />
              <mxPoint x="410" y="327.58" />
            </Array>
          </mxGeometry>
        </mxCell>
        <mxCell id="wVSth_chMfJrxCskNqP--26" value="" style="shape=flexArrow;endArrow=classic;startArrow=classic;html=1;rounded=0;width=8.88888888888889;endSize=5.666666666666666;" edge="1" parent="1">
          <mxGeometry width="100" height="100" relative="1" as="geometry">
            <mxPoint x="480" y="370" as="sourcePoint" />
            <mxPoint x="480" y="280" as="targetPoint" />
          </mxGeometry>
        </mxCell>
        <mxCell id="wVSth_chMfJrxCskNqP--27" value="" style="endArrow=none;html=1;rounded=0;dashed=1;dashPattern=1 2;" edge="1" parent="1" source="wVSth_chMfJrxCskNqP--29">
          <mxGeometry relative="1" as="geometry">
            <mxPoint x="180" y="340" as="sourcePoint" />
            <mxPoint x="750" y="340" as="targetPoint" />
          </mxGeometry>
        </mxCell>
        <mxCell id="wVSth_chMfJrxCskNqP--28" value="1" style="resizable=0;html=1;whiteSpace=wrap;align=right;verticalAlign=bottom;" connectable="0" vertex="1" parent="wVSth_chMfJrxCskNqP--27">
          <mxGeometry x="1" relative="1" as="geometry" />
        </mxCell>
        <mxCell id="wVSth_chMfJrxCskNqP--34" value="" style="ellipse;shape=doubleEllipse;whiteSpace=wrap;html=1;aspect=fixed;fillColor=#fff2cc;gradientColor=#ffd966;strokeColor=#d6b656;" vertex="1" parent="1">
          <mxGeometry x="700" y="180" width="80" height="80" as="geometry" />
        </mxCell>
        <mxCell id="wVSth_chMfJrxCskNqP--35" style="edgeStyle=orthogonalEdgeStyle;rounded=0;orthogonalLoop=1;jettySize=auto;html=1;" edge="1" parent="1" source="wVSth_chMfJrxCskNqP--5" target="wVSth_chMfJrxCskNqP--5">
          <mxGeometry relative="1" as="geometry" />
        </mxCell>
      </root>
    </mxGraphModel>
  </diagram>
</mxfile>
